# xmcd CD database file
#
# Track frame offsets:
#	150
#	22248
#	49942
#	68239
#	87320
#	98075
#	115432
#	142617
#	167801
#	192705
#
# Disc length: 2816 seconds
#
# Revision: 3
# Processed by: cddbd v1.5.2PL0 Copyright (c) Steve Scherf et al.
# Submitted via: CDex 1.51
#
DISCID=8e0afe0a
DTITLE=310 - Sixes and Sevens
DYEAR=2007
DGENRE=Jazz
TTITLE0=Fortuitous Bounce
TTITLE1=High And Tight
TTITLE2=U Bastard
TTITLE3=Black Acres
TTITLE4=Dear Resistance
TTITLE5=Radiator
TTITLE6=Kind Summer
TTITLE7=Track Eight
TTITLE8=Freedom Connection
TTITLE9=No Reason To Go There
EXTD=YEAR: 2007
EXTT0=
EXTT1=
EXTT2=
EXTT3=
EXTT4=
EXTT5=
EXTT6=
EXTT7=
EXTT8=
EXTT9=
PLAYORDER=
